# File created by Blade
# Date/Time:  Tue Apr 07 21:25:57 2015
# Frame Rate: 120.000 fps
#------------------------------------------------------
:FULLY-SPECIFIED
:DEGREES
793
root -5.154204 33.093767 0.687504 16.650739 -0.587663 1.352474
Spine -15.106854 -8.474405 1.064707
Head 6.013165 2.027838 -1.387679
LeftShoulder -21.464169 40.614147 17.566361
LeftArm 63.939911 -48.235994 -58.230103
LeftForeArm 6.851641 -0.000000 3.680762
LeftHand 8.682064 -0.000000 13.090726
LeftHandThumb1 -26.253704 0.000000 33.147579
RightShoulder -7.697413 1.934601 -29.689168
RightArm 13.371883 14.578874 44.962455
RightForeArm -11.405017 -0.000000 7.062646
RightHand 12.324249 -0.000000 -9.414461
RightHandThumb1 -24.326973 -0.000000 -32.862282
LeftUpLeg -12.287513 -1.255091 4.342268
LeftLeg 2.813135 -0.000000 -0.000000
LeftFoot -5.023610 8.551052 -21.228610
LeftToeBase -12.254194 -0.000000 0.000000
RightUpLeg -12.852095 1.772531 2.107455
RightLeg 2.651959 -0.000000 -0.000000
RightFoot -11.932457 -15.073200 12.579138
RightToeBase -7.895348 -0.000000 0.000000
794
root -5.059161 33.078201 0.648840 16.671416 0.066155 0.749620
Spine -15.043580 -8.695399 1.981692
Head 5.826935 1.990499 -1.733243
LeftShoulder -21.543416 40.652000 17.467887
LeftArm 64.057690 -48.178640 -58.576212
LeftForeArm 7.022853 -0.000000 3.213505
LeftHand 8.659210 -0.000000 13.162251
LeftHandThumb1 -26.253704 0.000000 33.147579
RightShoulder -7.661055 2.018741 -29.834660
RightArm 13.385171 14.625244 44.983578
RightForeArm -11.263282 -0.000000 7.161254
RightHand 12.268472 -0.000000 -9.212801
RightHandThumb1 -24.326973 -0.000000 -32.862282
LeftUpLeg -12.386767 -1.109840 4.698647
LeftLeg 2.715361 -0.000000 -0.000000
LeftFoot -5.506848 8.581762 -20.838074
LeftToeBase -11.238719 -0.000000 0.000000
RightUpLeg -12.657161 2.216916 2.471703
RightLeg 2.232314 -0.000000 -0.000000
RightFoot -12.152065 -15.215169 13.150659
RightToeBase -7.607233 -0.000000 0.000000
795
root -4.960932 33.066424 0.616280 16.640049 0.756778 0.177566
Spine -14.941628 -8.925340 2.865146
Head 5.634017 1.885803 -2.084299
LeftShoulder -21.599702 40.731889 17.396226
LeftArm 64.193602 -48.094905 -58.935689
LeftForeArm 6.953174 0.000000 2.801186
LeftHand 8.434060 -0.000000 13.352700
LeftHandThumb1 -26.253704 0.000000 33.147579
RightShoulder -7.656748 2.088722 -29.964088
RightArm 13.370049 14.669885 44.989232
RightForeArm -11.218593 -0.000000 7.279716
RightHand 12.303879 -0.000000 -9.239419
RightHandThumb1 -24.326973 -0.000000 -32.862282
LeftUpLeg -12.405611 -1.163240 5.066449
LeftLeg 2.533830 -0.000000 -0.000000
LeftFoot -5.959475 8.747085 -20.499524
LeftToeBase -10.394717 -0.000000 0.000000
RightUpLeg -12.417404 2.458361 2.831625
RightLeg 1.850258 -0.000000 -0.000000
RightFoot -12.451413 -15.202891 13.934255
RightToeBase -7.247376 -0.000000 0.000000
796
root -4.863685 33.058644 0.592008 16.522581 1.501287 -0.377074
Spine -14.779591 -9.221211 3.717305
Head 5.469523 1.755302 -2.348191
LeftShoulder -21.529625 40.717090 17.438388
LeftArm 63.979909 -47.922293 -58.957759
LeftForeArm 7.107255 -0.000000 2.375118
LeftHand 8.331339 -0.000000 12.476940
LeftHandThumb1 -26.253704 0.000000 33.147579
RightShoulder -7.599755 2.161124 -30.043427
RightArm 13.295364 14.704916 44.956841
RightForeArm -11.158844 -0.000000 7.365868
RightHand 12.483983 -0.000000 -9.353490
RightHandThumb1 -24.326973 -0.000000 -32.862282
LeftUpLeg -12.371266 -1.247466 5.452081
LeftLeg 2.391131 -0.000000 -0.000000
LeftFoot -6.325441 8.828431 -20.147989
LeftToeBase -9.681299 -0.000000 0.000000
RightUpLeg -12.070990 2.504172 3.215567
RightLeg 1.429036 -0.000000 -0.000000
RightFoot -12.694213 -15.087428 14.760747
RightToeBase -6.921433 -0.000000 0.000000
797
root -4.762328 33.053396 0.564843 16.384107 2.236356 -0.899097
Spine -14.580929 -9.542227 4.528073
Head 5.264176 1.651505 -2.561510
LeftShoulder -21.559672 40.725020 17.416618
LeftArm 63.903945 -47.720634 -59.005432
LeftForeArm 7.104353 -0.000000 1.762548
LeftHand 8.043162 0.000000 12.926815
LeftHandThumb1 -26.253704 0.000000 33.147579
RightShoulder -7.573269 2.184577 -30.095118
RightArm 13.321372 14.692539 44.935481
RightForeArm -11.169955 -0.000000 7.406865
RightHand 12.546656 0.000000 -9.300803
RightHandThumb1 -24.326973 -0.000000 -32.862282
LeftUpLeg -12.295197 -1.516399 5.861225
LeftLeg 2.184099 -0.000000 -0.000000
LeftFoot -6.621807 8.954427 -19.882767
LeftToeBase -9.094147 -0.000000 0.000000
RightUpLeg -11.734864 2.500377 3.566121
RightLeg 1.033074 -0.000000 -0.000000
RightFoot -12.896515 -14.976745 15.597665
RightToeBase -6.742886 -0.000000 0.000000
798
root -4.662501 33.048949 0.540317 16.203602 2.980411 -1.362390
Spine -14.351887 -9.867369 5.232612
Head 5.071000 1.517221 -2.729176
LeftShoulder -21.512574 40.747624 17.474068
LeftArm 63.790529 -47.540360 -59.020488
LeftForeArm 7.225750 -0.000000 1.249985
LeftHand 7.856926 -0.000000 12.414501
LeftHandThumb1 -26.253704 0.000000 33.147579
RightShoulder -7.527309 2.244999 -30.110565
RightArm 13.270124 14.651221 44.882959
RightForeArm -11.234896 0.000000 7.383758
RightHand 12.745745 -0.000000 -9.323983
RightHandThumb1 -24.326973 -0.000000 -32.862282
LeftUpLeg -12.198024 -1.908254 6.252645
LeftLeg 2.025258 -0.000000 -0.000000
LeftFoot -6.877699 9.054411 -19.605610
LeftToeBase -8.690597 -0.000000 0.000000
RightUpLeg -11.380656 2.413829 3.875251
RightLeg 0.676175 -0.000000 -0.000000
RightFoot -13.070401 -14.785120 16.416203
RightToeBase -6.611712 -0.000000 0.000000
799
root -4.567252 33.045933 0.512726 16.024566 3.736874 -1.786032
Spine -14.111772 -10.168716 5.851076
Head 4.855968 1.292923 -2.802008
LeftShoulder -21.360914 40.730046 17.645905
LeftArm 63.535966 -47.297783 -58.851883
LeftForeArm 7.282078 -0.000000 0.713366
LeftHand 7.571561 -0.000000 11.887316
LeftHandThumb1 -26.253704 0.000000 33.147579
RightShoulder -7.530980 2.234365 -30.090101
RightArm 13.230650 14.571973 44.823715
RightForeArm -11.290897 -0.000000 7.376400
RightHand 12.730964 -0.000000 -9.221800
RightHandThumb1 -24.326973 -0.000000 -32.862282
LeftUpLeg -12.161947 -2.447259 6.659279
LeftLeg 1.970029 -0.000000 -0.000000
LeftFoot -7.114574 9.141105 -19.341437
LeftToeBase -8.445739 -0.000000 0.000000
RightUpLeg -11.053708 2.324348 4.157672
RightLeg 0.335329 -0.000000 -0.000000
RightFoot -13.172338 -14.692946 17.116524
RightToeBase -6.418466 -0.000000 0.000000
800
root -4.470824 33.045144 0.479584 15.857801 4.410764 -2.130368
Spine -13.860499 -10.414038 6.313184
Head 4.645335 1.082400 -2.729897
LeftShoulder -21.078682 40.618919 17.939463
LeftArm 63.095400 -47.144648 -58.582720
LeftForeArm 7.424349 0.000000 0.290003
LeftHand 8.255880 0.000000 10.296092
LeftHandThumb1 -26.253704 0.000000 33.147579
RightShoulder -7.528989 2.231972 -30.007674
RightArm 13.170643 14.465940 44.738069
RightForeArm -11.534621 -0.000000 7.317509
RightHand 12.758999 -0.000000 -9.337922
RightHandThumb1 -24.326973 -0.000000 -32.862282
LeftUpLeg -12.104238 -3.210727 7.047716
LeftLeg 1.834447 -0.000000 -0.000000
LeftFoot -7.260202 9.285192 -19.395706
LeftToeBase -8.561059 -0.000000 0.000000
RightUpLeg -10.813454 2.319087 4.342383
RightLeg 0.110270 -0.000000 -0.000000
RightFoot -13.292685 -14.700025 17.720468
RightToeBase -6.214068 -0.000000 0.000000
801
root -4.377844 33.046838 0.446701 15.710784 5.099583 -2.450129
Spine -13.640441 -10.666936 6.732763
Head 4.425921 0.838621 -2.612198
LeftShoulder -20.926974 40.595364 18.195536
LeftArm 63.008229 -46.917736 -58.553329
LeftForeArm 7.389204 -0.000000 -0.359262
LeftHand 8.334510 -0.000000 10.339340
LeftHandThumb1 -26.253704 0.000000 33.147579
RightShoulder -7.557361 2.176157 -29.916568
RightArm 13.150552 14.381476 44.692275
RightForeArm -11.761142 0.000000 7.244876
RightHand 12.707019 0.000000 -9.400873
RightHandThumb1 -24.326973 -0.000000 -32.862282
LeftUpLeg -12.095658 -4.139292 7.473307
LeftLeg 1.736176 -0.000000 -0.000000
LeftFoot -7.437345 9.498652 -19.384690
LeftToeBase -8.588757 -0.000000 0.000000
RightUpLeg -10.623327 2.275042 4.530914
RightLeg -0.083129 -0.000000 0.000000
RightFoot -13.305159 -14.803227 18.016393
RightToeBase -6.015378 -0.000000 0.000000
802
root -4.288204 33.049712 0.410030 15.581762 5.705249 -2.722447
Spine -13.405578 -10.880545 7.038089
Head 4.173303 0.586326 -2.382586
LeftShoulder -20.803636 40.558955 18.453844
LeftArm 62.906889 -46.734549 -58.467879
LeftForeArm 7.370667 -0.000000 -0.976247
LeftHand 8.225009 -0.000000 10.206775
LeftHandThumb1 -26.253704 0.000000 33.147579
RightShoulder -7.589295 2.133709 -29.792083
RightArm 13.135239 14.300651 44.672625
RightForeArm -11.955171 0.000000 7.133242
RightHand 12.685232 -0.000000 -9.377063
RightHandThumb1 -24.326973 -0.000000 -32.862282
LeftUpLeg -12.104674 -5.139291 7.888285
LeftLeg 1.630266 -0.000000 -0.000000
LeftFoot -7.607004 9.716875 -19.555261
LeftToeBase -8.555184 -0.000000 0.000000
RightUpLeg -10.544781 2.256492 4.681169
RightLeg -0.126479 -0.000000 0.000000
RightFoot -13.274535 -14.964357 18.079758
RightToeBase -5.939373 -0.000000 0.000000
803
root -4.198628 33.054724 0.373731 15.483671 6.266015 -2.957493
Spine -13.204773 -11.053059 7.282959
Head 3.933924 0.323615 -2.111290
LeftShoulder -20.641020 40.487757 18.703324
LeftArm 62.727079 -46.618492 -58.287350
LeftForeArm 7.314374 -0.000000 -1.468932
LeftHand 7.765521 -0.000000 9.744977
LeftHandThumb1 -26.253704 0.000000 33.147579
RightShoulder -7.631251 2.060673 -29.672936
RightArm 13.129944 14.320038 44.714550
RightForeArm -12.176869 -0.000000 6.990853
RightHand 12.738411 0.000000 -9.555675
RightHandThumb1 -24.326973 -0.000000 -32.862282
LeftUpLeg -12.168935 -6.089526 8.262979
LeftLeg 1.579512 -0.000000 -0.000000
LeftFoot -7.763480 9.944715 -19.550373
LeftToeBase -8.358158 -0.000000 0.000000
RightUpLeg -10.529257 2.287173 4.786914
RightLeg -0.120501 -0.000000 0.000000
RightFoot -13.189552 -15.164186 18.041746
RightToeBase -5.794111 -0.000000 0.000000
